<svg width="211" height="36" viewBox="0 0 211 36" fill="none" xmlns="http://www.w3.org/2000/svg">
<path d="M90.7601 23.226L90.1063 20.6764H86.6906L86.0532 23.226L86.2656 23.4385H82L82.2615 23.226L86.4127 6.78449L86.2166 6.57202H90.564L90.3352 6.78449L94.5681 23.226L94.7642 23.4385H90.5313L90.7601 23.226ZM88.4066 11.8673H88.3576L87.4751 17.2116H89.3055L88.4066 11.8673ZM105.453 23.4548H105.273L103.622 22.5396C103.208 22.8337 102.794 23.0626 102.38 23.226C101.955 23.3785 101.394 23.4548 100.697 23.4548C100.021 23.4548 99.4003 23.3785 98.8337 23.226C98.2563 23.0735 97.766 22.8229 97.3628 22.4742C96.9488 22.1255 96.6219 21.6679 96.3822 21.1013C96.1425 20.5348 96.0227 19.8483 96.0227 19.0421V10.4618L95.7939 10.2656H99.8961L99.6673 10.4454V19.1892C99.6673 19.4398 99.7762 19.6304 99.9941 19.7612C100.223 19.8919 100.468 19.9573 100.73 19.9573C101.002 19.9573 101.247 19.8919 101.465 19.7612C101.683 19.6304 101.792 19.4398 101.792 19.1892V10.4618L101.596 10.2656H105.665L105.453 10.4618V23.4548ZM113.151 19.9573H114.148L114.442 19.7775V23.6509L114.131 23.4875H112.922C112.475 23.4875 112.034 23.4494 111.598 23.3731C111.162 23.3077 110.748 23.1715 110.356 22.9645C109.975 22.7575 109.62 22.4687 109.294 22.0983C108.978 21.7278 108.722 21.2375 108.525 20.6274V13.6651H107.283L107.038 13.8775V9.95511L107.283 10.1839H108.525V6.40859L108.264 6.17978H112.366L112.121 6.45762V10.1839H113.968L114.213 9.95511V13.8775L113.968 13.6651H112.121V19.3853C112.197 19.5596 112.323 19.7013 112.497 19.8102C112.682 19.9301 112.9 19.9791 113.151 19.9573ZM120.816 10.1676C121.502 10.1676 122.134 10.2602 122.712 10.4454C123.289 10.6415 123.785 10.9248 124.199 11.2953C124.624 11.6766 124.956 12.1397 125.196 12.6845C125.425 13.2293 125.539 13.8612 125.539 14.5803V19.1074C125.539 19.8266 125.425 20.464 125.196 21.0196C124.956 21.5644 124.629 22.022 124.215 22.3925C123.801 22.7738 123.305 23.0626 122.728 23.2587C122.15 23.4548 121.518 23.5529 120.832 23.5529C120.135 23.5529 119.492 23.4548 118.904 23.2587C118.326 23.0626 117.83 22.7738 117.416 22.3925C116.991 22.022 116.659 21.5644 116.419 21.0196C116.19 20.464 116.076 19.8266 116.076 19.1074V14.5803C116.076 13.8612 116.19 13.2293 116.419 12.6845C116.659 12.1397 116.991 11.6766 117.416 11.2953C117.83 10.9248 118.326 10.6415 118.904 10.4454C119.492 10.2602 120.129 10.1676 120.816 10.1676ZM121.927 19.1074V14.5313C121.927 14.2589 121.813 14.0519 121.584 13.9102C121.355 13.7686 121.099 13.6978 120.816 13.6978C120.532 13.6978 120.276 13.7686 120.048 13.9102C119.819 14.0519 119.704 14.2589 119.704 14.5313V19.1074C119.704 19.3907 119.819 19.6032 120.048 19.7448C120.265 19.8865 120.511 19.9573 120.783 19.9573C121.055 19.9573 121.311 19.8919 121.551 19.7612C121.791 19.6195 121.916 19.4016 121.927 19.1074ZM127.647 10.233H127.925L129.51 11.2953C129.87 10.9357 130.289 10.6688 130.769 10.4944C131.248 10.3201 131.749 10.233 132.272 10.233C133.46 10.233 134.457 10.6306 135.263 11.426C135.71 11.012 136.211 10.7069 136.767 10.5108C137.323 10.3147 137.889 10.2166 138.467 10.2166C139.077 10.2166 139.654 10.3092 140.199 10.4944C140.744 10.6688 141.218 10.9357 141.621 11.2953C142.024 11.6548 142.34 12.1016 142.569 12.6354C142.798 13.1693 142.912 13.7795 142.912 14.4659V23.226L143.124 23.4385H139.022L139.235 23.226V14.4169C139.235 14.1772 139.12 13.9974 138.892 13.8775C138.674 13.7577 138.434 13.6978 138.172 13.6978C137.911 13.6978 137.671 13.7577 137.453 13.8775C137.235 13.9974 137.126 14.1772 137.126 14.4169V23.226L137.323 23.4385H133.237L133.433 23.226V14.4169C133.433 14.1772 133.324 13.9974 133.106 13.8775C132.888 13.7577 132.648 13.6978 132.387 13.6978C132.125 13.6978 131.886 13.7577 131.668 13.8775C131.45 13.9974 131.341 14.1772 131.341 14.4169V23.226L131.537 23.4385H127.451L127.647 23.226V10.233ZM154.401 23.4221H154.124L151.836 21.9675C151.596 22.3053 151.329 22.5777 151.035 22.7847C150.741 22.9917 150.452 23.1497 150.169 23.2587C149.874 23.3676 149.596 23.433 149.335 23.4548C149.084 23.4875 148.872 23.5038 148.698 23.5038C148.055 23.5038 147.488 23.3894 146.998 23.1606C146.497 22.9318 146.083 22.6213 145.756 22.229C145.429 21.8259 145.178 21.3683 145.004 20.8562C144.83 20.3332 144.742 19.7775 144.742 19.1892C144.742 18.5899 144.835 18.0233 145.02 17.4894C145.216 16.9556 145.511 16.487 145.903 16.0839C146.284 15.6808 146.769 15.3593 147.357 15.1196C147.946 14.8799 148.643 14.7601 149.449 14.7601H150.757C150.757 14.3352 150.67 14.0628 150.495 13.9429C150.321 13.8231 150.076 13.7631 149.76 13.7631H146.328L146.05 13.9429V10.1512L146.36 10.282H150.054C150.697 10.282 151.28 10.3637 151.803 10.5271C152.326 10.6797 152.783 10.9357 153.176 11.2953C153.568 11.6439 153.868 12.0852 154.075 12.6191C154.293 13.1639 154.401 13.8176 154.401 14.5803V23.4221ZM150.904 19.1565V17.8163H149.433C149.084 17.8163 148.779 17.9089 148.518 18.0942C148.256 18.2903 148.126 18.5463 148.126 18.8623C148.126 19.0148 148.158 19.1728 148.224 19.3363C148.278 19.4888 148.376 19.6195 148.518 19.7285C148.659 19.8375 148.845 19.9028 149.074 19.9246C149.313 19.9464 149.618 19.8974 149.989 19.7775L150.904 19.1565ZM162.083 19.9573H163.096L163.39 19.7775V23.6509L163.063 23.4875H161.854C161.418 23.4875 160.982 23.4494 160.547 23.3731C160.111 23.3077 159.697 23.1715 159.304 22.9645C158.912 22.7575 158.558 22.4687 158.242 22.0983C157.926 21.7278 157.665 21.2375 157.458 20.6274V13.6651H156.232L155.97 13.8775V9.95511L156.232 10.1839H157.458V6.40859L157.213 6.17978H161.315L161.053 6.45762V10.1839H162.916L163.162 9.95511V13.8775L162.916 13.6651H161.053V19.3853C161.13 19.5596 161.26 19.7013 161.445 19.8102C161.631 19.9301 161.843 19.9791 162.083 19.9573ZM168.555 19.0748C168.555 19.4016 168.68 19.6522 168.931 19.8266C169.192 20.0118 169.47 20.1044 169.764 20.1044C170.058 20.1153 170.336 20.039 170.598 19.8756C170.859 19.723 170.996 19.4779 171.006 19.1401H174.324C174.324 19.9464 174.215 20.6219 173.997 21.1667C173.779 21.7224 173.469 22.1746 173.066 22.5232C172.673 22.8719 172.199 23.1225 171.644 23.275C171.088 23.4276 170.467 23.5038 169.781 23.5038C168.277 23.5038 167.106 23.117 166.267 22.3434C165.428 21.559 165.008 20.4748 165.008 19.0911V14.6784C165.008 14.0682 165.09 13.4907 165.254 12.946C165.417 12.4012 165.684 11.9272 166.054 11.5241C166.425 11.1209 166.921 10.805 167.542 10.5762C168.163 10.3365 168.92 10.2166 169.813 10.2166C171.252 10.2166 172.357 10.5598 173.131 11.2462C173.916 11.9436 174.308 13.0113 174.308 14.4496C174.308 15.2558 174.133 15.9096 173.785 16.4108C173.447 16.9011 173 17.3097 172.445 17.6365C171.9 17.9634 171.284 18.2303 170.598 18.4374C169.911 18.6444 169.23 18.8568 168.555 19.0748ZM170.925 14.4986C170.925 14.2044 170.799 13.9865 170.549 13.8449C170.309 13.6923 170.037 13.616 169.732 13.616C169.437 13.616 169.17 13.6869 168.931 13.8285C168.68 13.9702 168.555 14.1663 168.555 14.4169V15.708C169.078 15.6099 169.497 15.5173 169.813 15.4302C170.118 15.343 170.358 15.2504 170.532 15.1523C170.696 15.0652 170.799 14.9671 170.843 14.8581C170.897 14.7492 170.925 14.6293 170.925 14.4986ZM180.093 10.9684V19.0421C180.093 19.2382 180.164 19.4071 180.306 19.5487C180.437 19.6904 180.611 19.7612 180.829 19.7612H184.735V23.4385H180.829C180.219 23.4385 179.647 23.3241 179.113 23.0952C178.579 22.8664 178.11 22.5559 177.707 22.1637C177.304 21.7605 176.988 21.292 176.759 20.7581C176.53 20.2242 176.416 19.6522 176.416 19.0421V10.9684C176.416 10.3583 176.53 9.78623 176.759 9.25235C176.988 8.71846 177.304 8.24995 177.707 7.84681C178.11 7.44367 178.579 7.1277 179.113 6.89889C179.647 6.67008 180.219 6.55568 180.829 6.55568H184.555V10.233H180.829C180.611 10.233 180.437 10.3038 180.306 10.4454C180.164 10.5762 180.093 10.7505 180.093 10.9684ZM190.619 23.4385H186.484L186.68 23.226V10.854L186.484 10.6415H190.619L190.406 10.854V23.226L190.619 23.4385ZM186.337 7.97756C186.337 7.53084 186.446 7.16038 186.663 6.8662C186.87 6.58292 187.132 6.365 187.448 6.21246C187.764 6.07082 188.107 6 188.478 6C188.848 6 189.191 6.07082 189.507 6.21246C189.823 6.365 190.085 6.58292 190.292 6.8662C190.51 7.16038 190.619 7.53084 190.619 7.97756C190.619 8.40249 190.51 8.76204 190.292 9.05622C190.085 9.35041 189.823 9.56832 189.507 9.70996C189.191 9.85161 188.848 9.92243 188.478 9.92243C188.107 9.93332 187.764 9.8625 187.448 9.70996C187.132 9.55742 186.87 9.33951 186.663 9.05622C186.446 8.77294 186.337 8.41338 186.337 7.97756ZM198.104 19.9573H199.101L199.411 19.7775V23.6509L199.084 23.4875H197.875C197.428 23.4875 196.987 23.4494 196.551 23.3731C196.115 23.3077 195.707 23.1715 195.325 22.9645C194.933 22.7575 194.579 22.4687 194.263 22.0983C193.936 21.7278 193.675 21.2375 193.479 20.6274V13.6651H192.237L191.991 13.8775V9.95511L192.237 10.1839H193.479V6.40859L193.233 6.17978H197.319L197.074 6.45762V10.1839H198.921L199.183 9.95511V13.8775L198.921 13.6651H197.074V19.3853C197.15 19.5596 197.281 19.7013 197.466 19.8102C197.641 19.9301 197.853 19.9791 198.104 19.9573ZM210.705 26.5274C210.214 27.3663 209.615 28.0092 208.907 28.4559C208.199 28.9135 207.381 29.1423 206.455 29.1423C206.041 29.1423 205.627 29.1151 205.213 29.0606C204.799 29.0061 204.38 28.9026 203.955 28.7501C203.53 28.6084 203.094 28.4069 202.647 28.1454C202.211 27.873 201.748 27.5243 201.258 27.0994L203.105 24.37C203.617 24.7841 204.086 25.0837 204.51 25.2689C204.946 25.4541 205.333 25.5631 205.671 25.5958C206.009 25.6176 206.297 25.5958 206.537 25.5304C206.766 25.465 206.946 25.3833 207.076 25.2853L207.093 23.4385C207.016 23.4494 206.902 23.4548 206.75 23.4548C206.597 23.4548 206.439 23.4548 206.276 23.4548H205.622C205.012 23.4548 204.445 23.384 203.922 23.2423C203.399 23.1007 202.936 22.861 202.533 22.5232C202.141 22.1855 201.83 21.7387 201.601 21.1831C201.373 20.6274 201.258 19.9355 201.258 19.1074V10.4618L201.029 10.2656H205.099L204.903 10.4454V19.2218C204.903 19.4289 204.968 19.5977 205.099 19.7285C205.24 19.8701 205.415 19.941 205.622 19.941H207.093V10.4618L206.88 10.2656H210.933L210.705 10.4454V26.5274Z" fill="#2E2751"/>
<path d="M72.9913 30.2729C71.3805 31.8853 69.4672 33.1637 67.3611 34.0348C65.255 34.9059 62.9976 35.3525 60.7184 35.3489C58.4393 35.3525 56.1819 34.9059 54.0758 34.0348C51.9697 33.1637 50.0563 31.8853 48.4456 30.2729L47.782 29.6093L43.511 25.3374C43.149 24.9541 42.9507 24.4447 42.9585 23.9176C42.9662 23.3904 43.1792 22.8871 43.5523 22.5146C43.9254 22.1421 44.429 21.9298 44.9562 21.9229C45.4833 21.916 45.9924 22.115 46.3751 22.4775L50.6462 26.7495C50.7598 26.8666 51.1926 27.2994 51.3054 27.413C56.4951 32.6027 64.9409 32.6027 70.1306 27.413C72.6469 24.8967 74.0296 21.5564 74.0296 18C74.0296 14.4437 72.6461 11.099 70.1306 8.58699C64.9409 3.39733 56.4951 3.39733 51.3054 8.58699L29.6204 30.272C26.3399 33.549 21.9838 35.3567 17.3484 35.3567C15.0682 35.3625 12.8095 34.9161 10.7029 34.0433C8.59626 33.1705 6.68362 31.8887 5.07559 30.272C-1.69186 23.5045 -1.69186 12.4946 5.07559 5.72717C6.68317 4.10993 8.59574 2.82781 10.7025 1.95514C12.8092 1.08246 15.0681 0.636585 17.3484 0.64334C21.9838 0.64334 26.3408 2.44753 29.6213 5.72804L30.0983 6.20511L30.284 6.39073V3.16748C30.2994 2.64126 30.5193 2.14176 30.8969 1.77499C31.2746 1.40823 31.7803 1.20308 32.3067 1.20308C32.8332 1.20308 33.3389 1.40823 33.7166 1.77499C34.0942 2.14176 34.3141 2.64126 34.3295 3.16748V11.2733C34.3293 11.8097 34.1161 12.3241 33.7368 12.7034C33.3575 13.0827 32.8431 13.2959 32.3067 13.2961H24.2009C23.6747 13.2807 23.1752 13.0608 22.8084 12.6832C22.4416 12.3055 22.2365 11.7998 22.2365 11.2733C22.2365 10.7469 22.4416 10.2412 22.8084 9.8635C23.1752 9.48583 23.6747 9.26596 24.2009 9.25055H27.425L27.2394 9.06406C27.1544 8.98339 26.843 8.66766 26.7623 8.58699C25.5292 7.34677 24.0623 6.36354 22.4465 5.69427C20.8307 5.025 19.0982 4.68298 17.3493 4.68803C15.6004 4.68279 13.8678 5.02472 12.252 5.694C10.6362 6.36329 9.16926 7.34661 7.93628 8.58699C5.41995 11.099 4.03645 14.4445 4.03645 18C4.03645 21.5555 5.41995 24.8967 7.93541 27.413C9.16883 28.6528 10.6358 29.6358 12.2515 30.305C13.8672 30.9743 15.5996 31.3165 17.3484 31.312C20.9039 31.312 24.2451 29.9242 26.7615 27.413L48.4465 5.72804C55.2139 -1.03941 66.2238 -1.03941 72.9913 5.72804C79.7587 12.4955 79.7579 23.5054 72.9913 30.2729Z" fill="url(#paint0_linear)"/>
<path d="M211 1H0V35H211V1Z" fill="white" fill-opacity="0.05"/>
<defs>
<linearGradient id="paint0_linear" x1="-11.4" y1="0.0387373" x2="59.3523" y2="33.0311" gradientUnits="userSpaceOnUse">
<stop stop-color="#179E66"/>
<stop offset="1" stop-color="#F3A712"/>
</linearGradient>
</defs>
</svg>
